<?xml version="1.0" encoding="UTF-8" standalone="no"?>
<!DOCTYPE svg PUBLIC "-//W3C//DTD SVG 1.1//EN" "http://www.w3.org/Graphics/SVG/1.1/DTD/svg11.dtd">
<svg width="100%" height="100%" viewBox="0 0 355 120" version="1.1" xmlns="http://www.w3.org/2000/svg" xmlns:xlink="http://www.w3.org/1999/xlink" xml:space="preserve" xmlns:serif="http://www.serif.com/" style="fill-rule:evenodd;clip-rule:evenodd;stroke-linejoin:round;stroke-miterlimit:2;">
    <g id="Artboard1" transform="matrix(1.18219,0,0,1,0,0)">
        <rect x="0" y="0" width="300" height="120" style="fill:none;"/>
        <g transform="matrix(1.55234,0,0,1.83516,-44.1394,9.83502)">
            <g transform="matrix(35.4478,0,0,35.4478,32.3293,42.4931)">
                <path d="M0.237,0L0.329,0L0.329,-0.102L0.23,-0.102L0.23,-0.42L0.337,-0.42L0.337,-0.522L0.23,-0.522L0.23,-0.665L0.115,-0.665L0.115,-0.576C0.115,-0.54 0.103,-0.522 0.065,-0.522L0.025,-0.522L0.025,-0.42L0.102,-0.42L0.102,-0.133C0.102,-0.048 0.149,0 0.237,0Z" style="fill:rgb(255,120,125);fill-rule:nonzero;"/>
            </g>
            <g transform="matrix(35.4478,0,0,35.4478,44.8424,42.4931)">
                <path d="M0.285,0.012C0.382,0.012 0.458,-0.025 0.501,-0.084L0.432,-0.161C0.4,-0.12 0.362,-0.09 0.299,-0.09C0.215,-0.09 0.172,-0.141 0.172,-0.216L0.172,-0.229L0.519,-0.229L0.519,-0.271C0.519,-0.414 0.444,-0.534 0.281,-0.534C0.128,-0.534 0.039,-0.427 0.039,-0.262C0.039,-0.095 0.131,0.012 0.285,0.012ZM0.283,-0.438C0.349,-0.438 0.386,-0.389 0.386,-0.317L0.386,-0.308L0.172,-0.308L0.172,-0.316C0.172,-0.388 0.216,-0.438 0.283,-0.438Z" style="fill:rgb(255,120,125);fill-rule:nonzero;"/>
            </g>
            <g transform="matrix(35.4478,0,0,35.4478,64.0196,42.4931)">
                <path d="M0.28,0.012C0.381,0.012 0.454,-0.034 0.488,-0.126L0.39,-0.173C0.371,-0.126 0.341,-0.091 0.28,-0.091C0.209,-0.091 0.173,-0.14 0.173,-0.213L0.173,-0.308C0.173,-0.381 0.209,-0.431 0.28,-0.431C0.335,-0.431 0.368,-0.399 0.38,-0.355L0.485,-0.402C0.454,-0.484 0.385,-0.534 0.28,-0.534C0.126,-0.534 0.039,-0.429 0.039,-0.262C0.039,-0.094 0.126,0.012 0.28,0.012Z" style="fill:rgb(255,120,125);fill-rule:nonzero;"/>
            </g>
            <g transform="matrix(35.4478,0,0,35.4478,81.6018,42.4931)">
                <path d="M0.074,0L0.202,0L0.202,-0.345C0.202,-0.401 0.253,-0.429 0.306,-0.429C0.367,-0.429 0.392,-0.391 0.392,-0.317L0.392,0L0.52,0L0.52,-0.33C0.52,-0.46 0.46,-0.534 0.353,-0.534C0.272,-0.534 0.228,-0.491 0.207,-0.435L0.202,-0.435L0.202,-0.74L0.074,-0.74L0.074,0Z" style="fill:rgb(255,120,125);fill-rule:nonzero;"/>
            </g>
            <g transform="matrix(35.4478,0,0,35.4478,101.842,42.4931)">
                <path d="M0.202,0L0.202,-0.345C0.202,-0.401 0.253,-0.429 0.306,-0.429C0.367,-0.429 0.392,-0.391 0.392,-0.317L0.392,0L0.52,0L0.52,-0.33C0.52,-0.46 0.46,-0.534 0.353,-0.534C0.272,-0.534 0.228,-0.491 0.207,-0.435L0.202,-0.435L0.202,-0.522L0.074,-0.522L0.074,0L0.202,0Z" style="fill:rgb(255,120,125);fill-rule:nonzero;"/>
            </g>
            <g transform="matrix(35.4478,0,0,35.4478,122.083,42.4931)">
                <path d="M0.138,-0.598C0.19,-0.598 0.213,-0.625 0.213,-0.662L0.213,-0.682C0.213,-0.719 0.19,-0.746 0.138,-0.746C0.085,-0.746 0.063,-0.719 0.063,-0.682L0.063,-0.662C0.063,-0.625 0.085,-0.598 0.138,-0.598ZM0.074,0L0.202,0L0.202,-0.522L0.074,-0.522L0.074,0Z" style="fill:rgb(255,120,125);fill-rule:nonzero;"/>
            </g>
            <g transform="matrix(35.4478,0,0,35.4478,131.264,42.4931)">
                <path d="M0.167,0L0.303,0L0.369,-0.23L0.407,-0.372L0.41,-0.372L0.449,-0.23L0.516,0L0.654,0L0.797,-0.522L0.678,-0.522L0.626,-0.307L0.585,-0.128L0.581,-0.128L0.532,-0.307L0.469,-0.522L0.353,-0.522L0.292,-0.307L0.244,-0.128L0.24,-0.128L0.199,-0.307L0.146,-0.522L0.023,-0.522L0.167,0Z" style="fill:rgb(255,120,125);fill-rule:nonzero;"/>
            </g>
            <g transform="matrix(35.4478,0,0,35.4478,159.374,42.4931)">
                <path d="M0.281,0.012C0.431,0.012 0.524,-0.094 0.524,-0.262C0.524,-0.429 0.431,-0.534 0.281,-0.534C0.132,-0.534 0.039,-0.429 0.039,-0.262C0.039,-0.094 0.132,0.012 0.281,0.012ZM0.281,-0.091C0.215,-0.091 0.173,-0.134 0.173,-0.213L0.173,-0.31C0.173,-0.388 0.215,-0.431 0.281,-0.431C0.348,-0.431 0.39,-0.388 0.39,-0.31L0.39,-0.213C0.39,-0.134 0.348,-0.091 0.281,-0.091Z" style="fill:rgb(255,120,125);fill-rule:nonzero;"/>
            </g>
            <g transform="matrix(35.4478,0,0,35.4478,178.729,42.4931)">
                <path d="M0.202,0L0.202,-0.32C0.202,-0.377 0.247,-0.401 0.333,-0.401L0.373,-0.401L0.373,-0.522L0.345,-0.522C0.262,-0.522 0.22,-0.469 0.207,-0.414L0.202,-0.414L0.202,-0.522L0.074,-0.522L0.074,0L0.202,0Z" style="fill:rgb(255,120,125);fill-rule:nonzero;"/>
            </g>
            <g transform="matrix(35.4478,0,0,35.4478,192.057,42.4931)">
                <path d="M0.202,0L0.202,-0.345C0.202,-0.401 0.25,-0.429 0.299,-0.429C0.356,-0.429 0.383,-0.392 0.383,-0.317L0.383,0L0.511,0L0.511,-0.345C0.511,-0.401 0.558,-0.429 0.608,-0.429C0.665,-0.429 0.692,-0.392 0.692,-0.317L0.692,0L0.82,0L0.82,-0.33C0.82,-0.46 0.762,-0.534 0.66,-0.534C0.577,-0.534 0.519,-0.487 0.5,-0.429L0.498,-0.429C0.473,-0.499 0.418,-0.534 0.347,-0.534C0.269,-0.534 0.227,-0.49 0.207,-0.435L0.202,-0.435L0.202,-0.522L0.074,-0.522L0.074,0L0.202,0Z" style="fill:rgb(255,120,125);fill-rule:nonzero;"/>
            </g>
        </g>
        <g transform="matrix(1.78972,0,0,2.11579,-57.0049,-4.93439)">
            <g transform="matrix(35.4478,0,0,35.4478,32.3293,42.4931)">
                <path d="M0.272,-0.36L0.25,-0.36L0.25,-0.378C0.251,-0.383 0.251,-0.389 0.251,-0.396C0.251,-0.42 0.247,-0.436 0.238,-0.444C0.229,-0.452 0.211,-0.456 0.186,-0.456L0.186,-0.229C0.186,-0.167 0.205,-0.127 0.243,-0.109C0.212,-0.092 0.189,-0.077 0.176,-0.065C0.161,-0.05 0.145,-0.029 0.129,0C0.111,-0.031 0.095,-0.053 0.082,-0.066C0.073,-0.075 0.05,-0.09 0.014,-0.109C0.037,-0.12 0.052,-0.136 0.06,-0.159C0.065,-0.174 0.068,-0.198 0.068,-0.229L0.068,-0.456L0,-0.456L0,-0.501L0.068,-0.501L0.068,-0.605C0.068,-0.623 0.059,-0.64 0.04,-0.656C0.038,-0.658 0.028,-0.666 0.009,-0.681L0.01,-0.682C0.026,-0.684 0.049,-0.689 0.078,-0.697C0.093,-0.702 0.124,-0.722 0.169,-0.755C0.204,-0.78 0.237,-0.795 0.27,-0.8L0.269,-0.787C0.214,-0.77 0.186,-0.709 0.186,-0.606L0.186,-0.501C0.217,-0.501 0.236,-0.505 0.243,-0.514C0.248,-0.52 0.25,-0.539 0.25,-0.572L0.272,-0.572L0.272,-0.36Z" style="fill:rgb(36,82,187);fill-rule:nonzero;"/>
            </g>
            <g transform="matrix(35.4478,0,0,35.4478,43.7789,42.4931)">
                <path d="M0.371,-0.119C0.337,-0.116 0.304,-0.103 0.271,-0.08C0.238,-0.057 0.212,-0.031 0.195,0C0.178,-0.029 0.151,-0.055 0.112,-0.078C0.077,-0.099 0.041,-0.112 0.004,-0.119C0.042,-0.136 0.061,-0.165 0.061,-0.205L0.061,-0.333C0.061,-0.385 0.041,-0.422 0,-0.445C0.052,-0.445 0.1,-0.454 0.145,-0.473C0.194,-0.494 0.233,-0.524 0.26,-0.563C0.276,-0.532 0.291,-0.509 0.304,-0.493C0.321,-0.474 0.343,-0.458 0.371,-0.445C0.354,-0.43 0.342,-0.406 0.333,-0.372C0.324,-0.335 0.313,-0.309 0.301,-0.296C0.278,-0.269 0.236,-0.248 0.176,-0.233L0.175,-0.216C0.172,-0.171 0.195,-0.142 0.244,-0.128C0.269,-0.121 0.311,-0.118 0.371,-0.119ZM0.263,-0.341C0.263,-0.36 0.253,-0.384 0.233,-0.412C0.213,-0.439 0.194,-0.453 0.176,-0.453L0.176,-0.256C0.199,-0.261 0.219,-0.27 0.237,-0.285C0.254,-0.3 0.263,-0.318 0.263,-0.341Z" style="fill:rgb(36,82,187);fill-rule:nonzero;"/>
            </g>
            <g transform="matrix(35.4478,0,0,35.4478,58.2416,42.4931)">
                <path d="M0.371,-0.119C0.347,-0.118 0.316,-0.103 0.277,-0.073C0.26,-0.06 0.232,-0.035 0.195,0C0.182,-0.023 0.153,-0.048 0.108,-0.076C0.063,-0.103 0.027,-0.118 0.001,-0.119C0.02,-0.12 0.035,-0.133 0.046,-0.158C0.056,-0.179 0.061,-0.2 0.061,-0.221L0.061,-0.333C0.061,-0.384 0.041,-0.421 0,-0.444C0.121,-0.444 0.207,-0.483 0.26,-0.562C0.277,-0.529 0.292,-0.506 0.304,-0.492C0.319,-0.474 0.342,-0.458 0.371,-0.444C0.347,-0.433 0.326,-0.405 0.308,-0.359C0.295,-0.326 0.285,-0.29 0.28,-0.252L0.278,-0.252C0.273,-0.297 0.264,-0.337 0.251,-0.372C0.23,-0.427 0.205,-0.454 0.176,-0.452L0.176,-0.229C0.176,-0.156 0.241,-0.119 0.371,-0.119Z" style="fill:rgb(36,82,187);fill-rule:nonzero;"/>
            </g>
            <g transform="matrix(35.4478,0,0,35.4478,72.6689,42.4931)">
                <path d="M0.451,-0.118C0.422,-0.103 0.402,-0.073 0.393,-0.028C0.381,0.029 0.369,0.067 0.356,0.087C0.329,0.13 0.278,0.161 0.203,0.18L0.203,0.164C0.253,0.149 0.278,0.107 0.278,0.037L0.278,-0.382C0.278,-0.406 0.261,-0.422 0.228,-0.43C0.216,-0.433 0.201,-0.434 0.183,-0.434L0.171,-0.434L0.171,-0.224C0.171,-0.195 0.174,-0.173 0.18,-0.16C0.188,-0.143 0.204,-0.129 0.227,-0.118C0.202,-0.104 0.179,-0.086 0.16,-0.065C0.148,-0.052 0.132,-0.028 0.113,0.006C0.096,-0.025 0.08,-0.048 0.065,-0.065C0.048,-0.086 0.025,-0.103 -0.003,-0.118C0.021,-0.129 0.036,-0.143 0.043,-0.16C0.048,-0.173 0.051,-0.195 0.051,-0.224L0.051,-0.339C0.051,-0.395 0.032,-0.434 -0.005,-0.455C0.021,-0.472 0.037,-0.489 0.044,-0.505C0.049,-0.518 0.052,-0.542 0.052,-0.575C0.052,-0.632 0.032,-0.668 -0.007,-0.684C0.004,-0.683 0.012,-0.682 0.017,-0.682C0.048,-0.682 0.09,-0.701 0.143,-0.74C0.196,-0.779 0.237,-0.798 0.266,-0.798C0.294,-0.798 0.318,-0.791 0.339,-0.776C0.362,-0.759 0.374,-0.738 0.374,-0.711C0.374,-0.692 0.368,-0.677 0.357,-0.665C0.345,-0.652 0.33,-0.646 0.311,-0.646C0.274,-0.646 0.256,-0.663 0.256,-0.697C0.256,-0.71 0.26,-0.722 0.269,-0.731C0.278,-0.74 0.289,-0.745 0.302,-0.745C0.328,-0.745 0.342,-0.729 0.345,-0.697C0.346,-0.704 0.347,-0.708 0.347,-0.711C0.347,-0.728 0.34,-0.741 0.327,-0.753C0.314,-0.764 0.298,-0.769 0.28,-0.769C0.241,-0.769 0.213,-0.75 0.194,-0.711C0.179,-0.68 0.171,-0.644 0.171,-0.603L0.171,-0.463C0.215,-0.463 0.25,-0.472 0.275,-0.49C0.297,-0.506 0.318,-0.535 0.338,-0.577C0.353,-0.543 0.368,-0.518 0.381,-0.503C0.398,-0.484 0.421,-0.468 0.451,-0.455C0.414,-0.437 0.396,-0.407 0.396,-0.365L0.396,-0.226C0.396,-0.191 0.414,-0.155 0.451,-0.118Z" style="fill:rgb(36,82,187);fill-rule:nonzero;"/>
            </g>
            <g transform="matrix(35.4478,0,0,35.4478,90.4637,42.4931)">
                <path d="M0.431,-0.119C0.404,-0.104 0.382,-0.088 0.367,-0.069C0.36,-0.06 0.345,-0.037 0.324,0C0.304,-0.035 0.29,-0.057 0.281,-0.068C0.264,-0.089 0.243,-0.106 0.218,-0.119C0.241,-0.13 0.256,-0.144 0.263,-0.162C0.268,-0.174 0.27,-0.195 0.27,-0.224L0.27,-0.358C0.27,-0.377 0.266,-0.394 0.257,-0.409C0.247,-0.426 0.233,-0.435 0.215,-0.435C0.197,-0.435 0.183,-0.426 0.173,-0.409C0.164,-0.394 0.16,-0.377 0.16,-0.358L0.16,-0.224C0.16,-0.195 0.163,-0.175 0.168,-0.162C0.175,-0.144 0.19,-0.13 0.213,-0.119C0.187,-0.105 0.166,-0.088 0.149,-0.068C0.14,-0.058 0.126,-0.035 0.106,0C0.097,-0.017 0.082,-0.04 0.063,-0.069C0.046,-0.088 0.025,-0.105 0,-0.119C0.023,-0.13 0.038,-0.144 0.045,-0.162C0.05,-0.175 0.053,-0.195 0.053,-0.224L0.053,-0.358C0.053,-0.398 0.035,-0.427 0,-0.445C0.029,-0.46 0.051,-0.476 0.065,-0.493C0.076,-0.506 0.09,-0.529 0.106,-0.562C0.142,-0.489 0.178,-0.453 0.215,-0.453C0.252,-0.453 0.288,-0.489 0.324,-0.562C0.343,-0.525 0.357,-0.501 0.365,-0.492C0.378,-0.477 0.4,-0.461 0.431,-0.445C0.396,-0.428 0.378,-0.399 0.378,-0.358L0.378,-0.224C0.378,-0.197 0.381,-0.176 0.386,-0.162C0.393,-0.145 0.408,-0.13 0.431,-0.119Z" style="fill:rgb(36,82,187);fill-rule:nonzero;"/>
            </g>
            <g transform="matrix(35.4478,0,0,35.4478,107.479,42.4931)">
                <path d="M0.213,-0.681C0.166,-0.66 0.13,-0.622 0.107,-0.569C0.085,-0.625 0.05,-0.662 0.001,-0.681C0.053,-0.706 0.088,-0.745 0.107,-0.8C0.13,-0.741 0.166,-0.701 0.213,-0.681ZM0.213,-0.119C0.187,-0.105 0.166,-0.088 0.15,-0.068C0.141,-0.056 0.126,-0.033 0.107,0C0.087,-0.035 0.073,-0.057 0.064,-0.068C0.047,-0.089 0.026,-0.106 0.001,-0.119C0.024,-0.13 0.039,-0.144 0.046,-0.161C0.051,-0.173 0.053,-0.194 0.053,-0.224L0.053,-0.357C0.053,-0.4 0.035,-0.429 0,-0.444C0.023,-0.444 0.046,-0.458 0.068,-0.487C0.085,-0.509 0.098,-0.534 0.107,-0.562C0.116,-0.537 0.129,-0.513 0.148,-0.489C0.171,-0.46 0.192,-0.445 0.213,-0.444C0.178,-0.428 0.161,-0.399 0.161,-0.357L0.161,-0.224C0.161,-0.193 0.163,-0.172 0.168,-0.161C0.175,-0.144 0.19,-0.13 0.213,-0.119Z" style="fill:rgb(36,82,187);fill-rule:nonzero;"/>
            </g>
            <g transform="matrix(35.4478,0,0,35.4478,116.624,42.4931)">
                <path d="M0.635,-0.107C0.588,-0.107 0.549,-0.098 0.518,-0.08C0.498,-0.069 0.468,-0.042 0.427,0C0.378,-0.067 0.329,-0.101 0.281,-0.101C0.254,-0.101 0.231,-0.091 0.212,-0.072C0.193,-0.052 0.179,-0.028 0.172,0C0.155,-0.03 0.13,-0.055 0.098,-0.076C0.065,-0.097 0.033,-0.107 0,-0.107C0.015,-0.114 0.028,-0.127 0.038,-0.145C0.048,-0.163 0.053,-0.181 0.053,-0.2L0.053,-0.335C0.053,-0.365 0.051,-0.385 0.046,-0.396C0.039,-0.412 0.024,-0.426 0,-0.437C0.029,-0.452 0.051,-0.469 0.067,-0.489C0.076,-0.5 0.09,-0.525 0.108,-0.562C0.147,-0.494 0.183,-0.46 0.216,-0.46C0.249,-0.46 0.285,-0.494 0.324,-0.562C0.336,-0.532 0.35,-0.507 0.365,-0.489C0.38,-0.47 0.403,-0.452 0.432,-0.437C0.408,-0.426 0.393,-0.412 0.386,-0.396C0.381,-0.385 0.379,-0.365 0.379,-0.335L0.379,-0.2C0.387,-0.18 0.408,-0.161 0.443,-0.144C0.475,-0.127 0.503,-0.119 0.526,-0.119L0.526,-0.347C0.526,-0.369 0.519,-0.388 0.505,-0.405C0.49,-0.421 0.472,-0.432 0.449,-0.437C0.475,-0.451 0.495,-0.468 0.509,-0.489C0.52,-0.506 0.532,-0.53 0.544,-0.562C0.561,-0.501 0.592,-0.46 0.635,-0.437C0.607,-0.432 0.588,-0.424 0.578,-0.411C0.568,-0.398 0.563,-0.377 0.563,-0.347L0.563,-0.2C0.563,-0.149 0.587,-0.118 0.635,-0.107ZM0.263,-0.107L0.263,-0.335C0.263,-0.358 0.26,-0.378 0.254,-0.395C0.245,-0.42 0.232,-0.432 0.215,-0.432C0.196,-0.432 0.183,-0.42 0.174,-0.395C0.167,-0.375 0.163,-0.355 0.163,-0.335L0.163,-0.184C0.163,-0.169 0.176,-0.152 0.202,-0.134C0.226,-0.117 0.246,-0.108 0.263,-0.107Z" style="fill:rgb(36,82,187);fill-rule:nonzero;"/>
            </g>
            <g transform="matrix(35.4478,0,0,35.4478,140.835,42.4931)">
                <path d="M0.428,-0.12C0.317,-0.118 0.239,-0.078 0.195,0C0.18,-0.027 0.151,-0.053 0.109,-0.079C0.066,-0.105 0.03,-0.119 0,-0.12C0.016,-0.121 0.029,-0.134 0.04,-0.161C0.049,-0.184 0.054,-0.204 0.054,-0.222L0.054,-0.334C0.054,-0.389 0.036,-0.426 0.001,-0.446C0.046,-0.446 0.089,-0.456 0.132,-0.476C0.178,-0.497 0.211,-0.526 0.232,-0.562C0.246,-0.537 0.275,-0.512 0.318,-0.487C0.361,-0.461 0.398,-0.447 0.427,-0.446C0.391,-0.437 0.373,-0.402 0.373,-0.34L0.373,-0.228C0.373,-0.175 0.391,-0.139 0.428,-0.12ZM0.263,-0.11L0.263,-0.335C0.263,-0.364 0.253,-0.39 0.232,-0.413C0.221,-0.425 0.199,-0.443 0.164,-0.466L0.164,-0.223C0.164,-0.179 0.197,-0.141 0.263,-0.11Z" style="fill:rgb(36,82,187);fill-rule:nonzero;"/>
            </g>
            <g transform="matrix(35.4478,0,0,35.4478,157.46,42.4931)">
                <path d="M0.389,-0.437C0.365,-0.426 0.345,-0.399 0.328,-0.354C0.316,-0.322 0.307,-0.287 0.302,-0.249L0.301,-0.249C0.299,-0.28 0.29,-0.314 0.274,-0.353C0.254,-0.401 0.232,-0.425 0.209,-0.425C0.189,-0.425 0.179,-0.409 0.179,-0.376L0.179,-0.173C0.209,-0.139 0.238,-0.119 0.265,-0.112C0.279,-0.109 0.314,-0.107 0.371,-0.107C0.334,-0.095 0.302,-0.081 0.277,-0.065C0.257,-0.052 0.231,-0.031 0.198,0C0.183,-0.027 0.155,-0.051 0.113,-0.074C0.07,-0.096 0.033,-0.107 0.001,-0.107C0.016,-0.108 0.031,-0.123 0.044,-0.152C0.056,-0.178 0.062,-0.2 0.062,-0.218L0.062,-0.331C0.062,-0.378 0.041,-0.414 0,-0.437C0.043,-0.437 0.082,-0.479 0.115,-0.562C0.141,-0.493 0.171,-0.459 0.205,-0.459C0.239,-0.459 0.27,-0.493 0.299,-0.562L0.331,-0.489C0.344,-0.466 0.364,-0.448 0.389,-0.437Z" style="fill:rgb(36,82,187);fill-rule:nonzero;"/>
            </g>
            <g transform="matrix(35.4478,0,0,35.4478,172.49,42.4931)">
                <path d="M0.648,-0.119C0.622,-0.105 0.601,-0.088 0.585,-0.068C0.576,-0.056 0.561,-0.033 0.542,0C0.523,-0.033 0.508,-0.056 0.499,-0.068C0.483,-0.088 0.462,-0.105 0.436,-0.119C0.459,-0.13 0.474,-0.144 0.481,-0.162C0.486,-0.174 0.488,-0.195 0.488,-0.224L0.488,-0.358C0.488,-0.377 0.484,-0.394 0.475,-0.409C0.465,-0.426 0.451,-0.435 0.433,-0.435C0.415,-0.435 0.401,-0.426 0.391,-0.409C0.382,-0.394 0.378,-0.377 0.378,-0.358L0.378,-0.224C0.378,-0.193 0.38,-0.172 0.385,-0.161C0.392,-0.144 0.407,-0.13 0.431,-0.119C0.405,-0.105 0.384,-0.088 0.367,-0.068C0.358,-0.058 0.344,-0.035 0.324,0C0.304,-0.035 0.29,-0.057 0.281,-0.068C0.264,-0.089 0.243,-0.106 0.218,-0.119C0.241,-0.13 0.256,-0.144 0.263,-0.162C0.268,-0.174 0.27,-0.195 0.27,-0.224L0.27,-0.358C0.27,-0.377 0.266,-0.394 0.257,-0.409C0.247,-0.426 0.233,-0.435 0.215,-0.435C0.197,-0.435 0.183,-0.426 0.173,-0.409C0.164,-0.394 0.16,-0.377 0.16,-0.358L0.16,-0.224C0.16,-0.193 0.162,-0.172 0.167,-0.161C0.174,-0.144 0.189,-0.13 0.213,-0.119C0.187,-0.105 0.166,-0.088 0.149,-0.068C0.14,-0.058 0.126,-0.035 0.106,0C0.097,-0.017 0.082,-0.04 0.063,-0.069C0.046,-0.088 0.025,-0.105 0,-0.119C0.023,-0.13 0.038,-0.144 0.045,-0.162C0.05,-0.175 0.053,-0.195 0.053,-0.224L0.053,-0.358C0.053,-0.375 0.048,-0.392 0.038,-0.409C0.028,-0.425 0.015,-0.437 0,-0.444C0.03,-0.459 0.052,-0.475 0.066,-0.491C0.079,-0.506 0.093,-0.53 0.106,-0.562C0.142,-0.489 0.178,-0.453 0.215,-0.453C0.252,-0.453 0.288,-0.489 0.324,-0.562C0.36,-0.489 0.396,-0.453 0.433,-0.453C0.47,-0.453 0.506,-0.489 0.542,-0.562C0.562,-0.522 0.575,-0.498 0.581,-0.491C0.594,-0.475 0.617,-0.459 0.648,-0.444C0.613,-0.428 0.596,-0.399 0.596,-0.358L0.596,-0.224C0.596,-0.194 0.598,-0.173 0.603,-0.162C0.61,-0.144 0.625,-0.13 0.648,-0.119Z" style="fill:rgb(36,82,187);fill-rule:nonzero;"/>
            </g>
        </g>
    </g>
</svg>
